<svg width="41" height="42" viewBox="0 0 41 42" fill="none" xmlns="http://www.w3.org/2000/svg">
<path d="M18 0C9.72 0 3 3.3641 3 7.50916C3 10.8733 7.41 13.7117 13.5 14.6729V19.5238L19.5 13.5165L13.5 7.50916V11.6092C8.775 10.7681 6 8.75568 6 7.50916C6 5.91722 10.56 3.00366 18 3.00366C25.44 3.00366 30 5.91722 30 7.50916C30 8.60549 27.81 10.3476 24 11.3088V14.3875C29.295 13.2311 33 10.5879 33 7.50916C33 3.3641 26.28 0 18 0V0Z" fill="#A5A5A5"/>
<path d="M2.367 28.558C2.541 28.432 2.751 28.279 2.997 28.099C3.243 27.919 3.504 27.721 3.78 27.505C4.062 27.289 4.347 27.064 4.635 26.83C4.929 26.59 5.208 26.347 5.472 26.101C5.742 25.849 5.988 25.6 6.21 25.354C6.432 25.102 6.615 24.862 6.759 24.634L4.419 25.3H1.44L1.629 23.5H9.207V25.057C9.021 25.531 8.754 25.966 8.406 26.362C8.058 26.758 7.671 27.148 7.245 27.532L5.841 28.279C6.471 28.279 7.044 28.363 7.56 28.531C8.082 28.693 8.526 28.927 8.892 29.233C9.258 29.539 9.54 29.914 9.738 30.358C9.942 30.796 10.044 31.291 10.044 31.843C10.044 32.437 9.921 32.977 9.675 33.463C9.429 33.949 9.096 34.384 8.676 34.768C8.256 35.146 7.761 35.476 7.191 35.758C6.627 36.04 6.021 36.274 5.373 36.46C4.731 36.64 4.065 36.775 3.375 36.865C2.691 36.955 2.016 37 1.35 37V35.2C2.058 35.176 2.748 35.083 3.42 34.921C4.092 34.759 4.692 34.54 5.22 34.264C5.748 33.982 6.171 33.646 6.489 33.256C6.813 32.86 6.975 32.419 6.975 31.933C6.975 31.585 6.9 31.294 6.75 31.06C6.606 30.82 6.408 30.628 6.156 30.484C5.904 30.334 5.61 30.229 5.274 30.169C4.944 30.103 4.593 30.07 4.221 30.07C4.131 30.07 3.999 30.076 3.825 30.088C3.651 30.094 3.471 30.103 3.285 30.115C3.099 30.121 2.919 30.13 2.745 30.142C2.577 30.148 2.451 30.154 2.367 30.16V28.558ZM20.644 25.48C20.488 25.396 20.317 25.345 20.131 25.327C19.951 25.309 19.789 25.3 19.645 25.3C19.231 25.3 18.802 25.402 18.358 25.606C17.92 25.804 17.506 26.095 17.116 26.479C16.726 26.863 16.384 27.334 16.09 27.892C15.802 28.45 15.604 29.086 15.496 29.8L16.981 28.495C17.143 28.465 17.299 28.441 17.449 28.423C17.605 28.405 17.752 28.396 17.89 28.396C18.472 28.396 19.033 28.471 19.573 28.621C20.119 28.765 20.602 28.996 21.022 29.314C21.442 29.626 21.778 30.028 22.03 30.52C22.282 31.006 22.408 31.591 22.408 32.275C22.408 32.941 22.288 33.571 22.048 34.165C21.808 34.753 21.469 35.269 21.031 35.713C20.599 36.157 20.077 36.508 19.465 36.766C18.853 37.024 18.178 37.153 17.44 37.153C16.792 37.153 16.219 37.057 15.721 36.865C15.229 36.673 14.797 36.421 14.425 36.109C14.059 35.791 13.75 35.431 13.498 35.029C13.246 34.621 13.042 34.204 12.886 33.778C12.736 33.346 12.628 32.92 12.562 32.5C12.496 32.08 12.463 31.699 12.463 31.357C12.463 30.649 12.538 29.959 12.688 29.287C12.844 28.615 13.066 27.985 13.354 27.397C13.648 26.803 14.005 26.257 14.425 25.759C14.851 25.261 15.331 24.835 15.865 24.481C16.405 24.121 16.999 23.842 17.647 23.644C18.295 23.446 18.988 23.347 19.726 23.347C19.834 23.347 19.987 23.356 20.185 23.374C20.389 23.386 20.644 23.434 20.95 23.518L20.644 25.48ZM17.764 30.196C17.548 30.196 17.329 30.241 17.107 30.331C16.891 30.421 16.681 30.535 16.477 30.673C16.279 30.811 16.093 30.964 15.919 31.132C15.751 31.294 15.61 31.447 15.496 31.591C15.496 31.747 15.496 31.891 15.496 32.023C15.502 32.149 15.511 32.272 15.523 32.392C15.535 32.506 15.55 32.62 15.568 32.734C15.586 32.848 15.613 32.968 15.649 33.094C15.721 33.376 15.814 33.646 15.928 33.904C16.048 34.156 16.183 34.378 16.333 34.57C16.489 34.762 16.66 34.915 16.846 35.029C17.038 35.143 17.245 35.2 17.467 35.2C17.791 35.2 18.073 35.116 18.313 34.948C18.553 34.774 18.751 34.552 18.907 34.282C19.069 34.006 19.186 33.7 19.258 33.364C19.336 33.022 19.375 32.686 19.375 32.356C19.375 32.056 19.333 31.774 19.249 31.51C19.171 31.246 19.06 31.018 18.916 30.826C18.772 30.628 18.601 30.475 18.403 30.367C18.205 30.253 17.992 30.196 17.764 30.196ZM28.7961 37.144C28.2381 37.144 27.7251 37.048 27.2571 36.856C26.7891 36.658 26.3691 36.391 25.9971 36.055C25.6251 35.719 25.2981 35.326 25.0161 34.876C24.7341 34.426 24.5001 33.946 24.3141 33.436C24.1281 32.926 23.9871 32.398 23.8911 31.852C23.8011 31.306 23.7561 30.772 23.7561 30.25C23.7561 29.71 23.7951 29.167 23.8731 28.621C23.9511 28.069 24.0741 27.538 24.2421 27.028C24.4161 26.512 24.6351 26.032 24.8991 25.588C25.1691 25.144 25.4901 24.757 25.8621 24.427C26.2341 24.091 26.6631 23.83 27.1491 23.644C27.6351 23.452 28.1841 23.356 28.7961 23.356C29.3541 23.356 29.8671 23.455 30.3351 23.653C30.8031 23.845 31.2231 24.109 31.5951 24.445C31.9671 24.781 32.2941 25.174 32.5761 25.624C32.8581 26.074 33.0921 26.554 33.2781 27.064C33.4641 27.574 33.6021 28.102 33.6921 28.648C33.7881 29.194 33.8361 29.728 33.8361 30.25C33.8361 30.79 33.7941 31.336 33.7101 31.888C33.6321 32.434 33.5091 32.965 33.3411 33.481C33.1731 33.991 32.9541 34.468 32.6841 34.912C32.4201 35.356 32.0991 35.746 31.7211 36.082C31.3491 36.412 30.9201 36.673 30.4341 36.865C29.9481 37.051 29.4021 37.144 28.7961 37.144ZM26.8881 29.881C26.8881 30.187 26.8971 30.526 26.9151 30.898C26.9331 31.27 26.9661 31.645 27.0141 32.023C27.0681 32.395 27.1401 32.758 27.2301 33.112C27.3201 33.466 27.4371 33.781 27.5811 34.057C27.7311 34.333 27.9081 34.555 28.1121 34.723C28.3221 34.885 28.5711 34.966 28.8591 34.966C29.1111 34.966 29.3301 34.906 29.5161 34.786C29.7081 34.66 29.8731 34.492 30.0111 34.282C30.1491 34.066 30.2631 33.817 30.3531 33.535C30.4431 33.247 30.5121 32.941 30.5601 32.617C30.6141 32.293 30.6501 31.963 30.6681 31.627C30.6921 31.285 30.7041 30.949 30.7041 30.619C30.7041 30.313 30.6951 29.974 30.6771 29.602C30.6591 29.23 30.6231 28.858 30.5691 28.486C30.5211 28.108 30.4521 27.742 30.3621 27.388C30.2721 27.034 30.1521 26.722 30.0021 26.452C29.8581 26.176 29.6811 25.957 29.4711 25.795C29.2611 25.627 29.0121 25.543 28.7241 25.543C28.4721 25.543 28.2501 25.606 28.0581 25.732C27.8721 25.852 27.7101 26.02 27.5721 26.236C27.4341 26.446 27.3201 26.695 27.2301 26.983C27.1461 27.265 27.0771 27.568 27.0231 27.892C26.9751 28.21 26.9391 28.54 26.9151 28.882C26.8971 29.224 26.8881 29.557 26.8881 29.881ZM37.8211 23.347C38.1871 23.347 38.5321 23.41 38.8561 23.536C39.1801 23.662 39.4621 23.836 39.7021 24.058C39.9481 24.28 40.1401 24.538 40.2781 24.832C40.4161 25.126 40.4851 25.441 40.4851 25.777C40.4851 26.113 40.4161 26.428 40.2781 26.722C40.1401 27.016 39.9481 27.274 39.7021 27.496C39.4621 27.712 39.1801 27.886 38.8561 28.018C38.5321 28.144 38.1871 28.207 37.8211 28.207C37.4491 28.207 37.1011 28.144 36.7771 28.018C36.4591 27.886 36.1771 27.712 35.9311 27.496C35.6911 27.274 35.5021 27.016 35.3641 26.722C35.2261 26.428 35.1571 26.113 35.1571 25.777C35.1571 25.441 35.2261 25.126 35.3641 24.832C35.5021 24.538 35.6911 24.28 35.9311 24.058C36.1771 23.836 36.4591 23.662 36.7771 23.536C37.1011 23.41 37.4491 23.347 37.8211 23.347ZM37.8211 26.695C37.9591 26.695 38.0881 26.671 38.2081 26.623C38.3341 26.575 38.4421 26.509 38.5321 26.425C38.6221 26.341 38.6941 26.245 38.7481 26.137C38.8021 26.023 38.8291 25.903 38.8291 25.777C38.8291 25.651 38.8021 25.534 38.7481 25.426C38.6941 25.312 38.6221 25.213 38.5321 25.129C38.4421 25.045 38.3341 24.979 38.2081 24.931C38.0881 24.883 37.9591 24.859 37.8211 24.859C37.6831 24.859 37.5511 24.883 37.4251 24.931C37.3051 24.979 37.2001 25.045 37.1101 25.129C37.0201 25.213 36.9481 25.312 36.8941 25.426C36.8401 25.534 36.8131 25.651 36.8131 25.777C36.8131 25.903 36.8401 26.023 36.8941 26.137C36.9481 26.245 37.0201 26.341 37.1101 26.425C37.2001 26.509 37.3051 26.575 37.4251 26.623C37.5511 26.671 37.6831 26.695 37.8211 26.695Z" fill="#A5A5A5"/>
</svg>
