<svg width="30" height="46" viewBox="0 0 30 46" fill="none" xmlns="http://www.w3.org/2000/svg">
<path d="M28.7574 22.5863L18.1531 16.4403L23.499 3.61062C23.6855 3.22957 23.7724 2.80742 23.7514 2.38368C23.7303 1.95993 23.6022 1.54844 23.3789 1.18771C23.1555 0.826987 22.8443 0.528813 22.4744 0.321094C22.1045 0.113374 21.6879 0.00289916 21.2636 7.09932e-06C20.6998 -0.00133324 20.152 0.187151 19.7083 0.535098L19.5333 0.685123L0.780124 18.4381C0.498211 18.7059 0.282471 19.0355 0.149977 19.401C0.0174831 19.7666 -0.0281295 20.1579 0.0167475 20.5441C0.0616245 20.9303 0.19576 21.3007 0.408541 21.6261C0.621321 21.9515 0.906908 22.2229 1.2427 22.4188L11.8495 28.5699L6.44109 41.5471C6.218 42.0764 6.18418 42.6665 6.34531 43.2178C6.50644 43.7692 6.85267 44.2482 7.32569 44.5741C7.79871 44.9 8.3696 45.0529 8.94219 45.0071C9.51479 44.9613 10.0541 44.7195 10.4693 44.3225L29.2225 26.5645C29.5038 26.2966 29.7189 25.9669 29.8509 25.6016C29.9829 25.2362 30.0282 24.8452 29.9831 24.4593C29.9379 24.0735 29.8037 23.7034 29.591 23.3784C29.3783 23.0533 29.0929 22.7821 28.7574 22.5863V22.5863Z" fill="black"/>
</svg>
