<svg width="25" height="38" viewBox="0 0 25 38" fill="none" xmlns="http://www.w3.org/2000/svg">
<path d="M23.9645 18.822L15.1276 13.7003L19.5825 3.00885C19.7379 2.69131 19.8103 2.33952 19.7928 1.9864C19.7753 1.63328 19.6685 1.29037 19.4824 0.989762C19.2963 0.689156 19.0369 0.440678 18.7287 0.267578C18.4204 0.0944782 18.0732 0.00241597 17.7197 5.9161e-06C17.2498 -0.00111103 16.7933 0.155959 16.4236 0.445915L16.2778 0.570936L0.650104 15.3651C0.415176 15.5882 0.235392 15.8629 0.124981 16.1675C0.0145692 16.4721 -0.0234413 16.7982 0.0139563 17.1201C0.0513538 17.4419 0.163133 17.7506 0.340451 18.0217C0.517768 18.2929 0.755757 18.5191 1.03559 18.6823L9.87459 23.8082L5.36757 34.6226C5.18167 35.0637 5.15348 35.5554 5.28776 36.0149C5.42203 36.4743 5.71056 36.8735 6.10474 37.1451C6.49892 37.4167 6.97467 37.5441 7.45183 37.5059C7.92899 37.4677 8.37842 37.2663 8.72439 36.9354L24.352 22.1371C24.5865 21.9138 24.7658 21.6391 24.8758 21.3347C24.9858 21.0302 25.0235 20.7043 24.9859 20.3828C24.9483 20.0612 24.8364 19.7528 24.6592 19.482C24.4819 19.2111 24.2441 18.9851 23.9645 18.822V18.822Z" fill="#D88665"/>
</svg>
