<svg width="25" height="38" viewBox="0 0 25 38" fill="none" xmlns="http://www.w3.org/2000/svg">
<path d="M13.743 13.1233L13.2368 14.3381L14.3754 14.998L23.2084 20.1175C23.2088 20.1177 23.2092 20.1179 23.2096 20.1182C23.2878 20.1641 23.3544 20.2274 23.404 20.3033C23.4539 20.3796 23.4854 20.4664 23.496 20.557C23.5066 20.6475 23.496 20.7392 23.465 20.825C23.4342 20.9102 23.3842 20.9871 23.3187 21.0498C23.3183 21.0502 23.3179 21.0505 23.3176 21.0509L7.69301 35.8463L7.68774 35.8513C7.59107 35.9437 7.4655 36 7.33218 36.0107C7.19886 36.0214 7.06594 35.9858 6.9558 35.9099C6.84567 35.834 6.76505 35.7225 6.72754 35.5941C6.69002 35.4657 6.6979 35.3283 6.74985 35.2051L6.75214 35.1996L11.2592 24.3853L11.7653 23.1707L10.6271 22.5106L1.79158 17.3868C1.79118 17.3866 1.79079 17.3863 1.7904 17.3861C1.71212 17.3402 1.64553 17.2767 1.59586 17.2008C1.54593 17.1244 1.51446 17.0375 1.50393 16.9469C1.4934 16.8563 1.5041 16.7645 1.53519 16.6787C1.56618 16.5932 1.61658 16.5161 1.68242 16.4534C1.68263 16.4532 1.68284 16.453 1.68304 16.4528L17.2821 1.68573L17.3675 1.61253C17.4678 1.53986 17.5886 1.5004 17.7128 1.5C17.8114 1.50123 17.9082 1.52718 17.9943 1.5755C18.0813 1.62436 18.1545 1.6945 18.207 1.77935C18.2596 1.86421 18.2897 1.961 18.2946 2.06068C18.2996 2.16036 18.2792 2.25966 18.2353 2.34929L18.2153 2.39004L18.1979 2.43191L13.743 13.1233Z" stroke="#D88665" stroke-width="3"/>
</svg>
