<svg width="30" height="42" viewBox="0 0 30 42" fill="none" xmlns="http://www.w3.org/2000/svg">
<path d="M6 11.9998V5.99985C6.00003 4.94664 6.27728 3.912 6.8039 2.9999C7.33053 2.08781 8.08796 1.3304 9.00007 0.803809C9.91218 0.277217 10.9468 -6.68899e-06 12 1.21048e-10C13.0532 6.68923e-06 14.0879 0.277244 15 0.803848C15.9121 0.277244 16.9468 6.68923e-06 18 1.21048e-10C19.0532 -6.68899e-06 20.0878 0.277217 20.9999 0.803809C21.912 1.3304 22.6695 2.08781 23.1961 2.9999C23.7227 3.912 24 4.94664 24 5.99985V11.9998H25.5C26.6935 11.9998 27.8381 12.474 28.682 13.3179C29.5259 14.1618 30 15.3064 30 16.4998V35.9998C30 37.4519 29.4735 38.8547 28.518 39.9481C27.5625 41.0415 26.243 41.7513 24.804 41.9458C23.744 41.7799 22.7782 41.2407 22.0807 40.4255C21.3832 39.6103 21 38.5727 21 37.4998V5.99985C21.0003 5.5418 20.8958 5.08976 20.6944 4.67838C20.493 4.267 20.2 3.9072 19.838 3.62657C19.476 3.34594 19.0545 3.15193 18.6059 3.05941C18.1573 2.9669 17.6935 2.97834 17.25 3.09285C17.73 3.95385 18 4.94685 18 5.99985V37.4998C18 39.1888 18.558 40.7458 19.5 41.9998H6C4.4087 41.9998 2.88258 41.3677 1.75736 40.2425C0.632141 39.1173 0 37.5911 0 35.9998V16.4998C0 15.3064 0.474106 14.1618 1.31802 13.3179C2.16193 12.474 3.30653 11.9998 4.5 11.9998H6ZM9 5.99985V11.9998H15V5.99985C15 5.2042 14.6839 4.44114 14.1213 3.87853C13.5587 3.31592 12.7956 2.99985 12 2.99985C11.2044 2.99985 10.4413 3.31592 9.87868 3.87853C9.31607 4.44114 9 5.2042 9 5.99985V5.99985Z" fill="black"/>
</svg>
