<svg width="156" height="21" viewBox="0 0 156 21" fill="none" xmlns="http://www.w3.org/2000/svg">
<g clip-path="url(#clip0_2_99)">
<path d="M133.22 8.34105V20.8346H137.15V12.5164H151.452V20.8346H155.379V8.36271L133.22 8.34105M136.712 4.29969H151.822C153.921 3.87434 155.482 1.98594 155.922 0.159115H132.612C133.048 1.98651 134.632 3.87434 136.712 4.29969M121.318 20.8426C123.299 19.9862 124.365 18.5049 124.774 16.7716H107.148L107.159 0.169378L103.208 0.180781V20.8426H121.318M73.827 4.24381H87.7822C89.8861 3.62061 91.6527 1.98651 92.0833 0.175079H69.9151V12.3853H88.059V16.6701L73.827 16.6815C71.5967 17.3155 69.7054 18.8424 68.762 20.8591L69.9151 20.8375H91.9575V8.32565H73.827V4.24381M39.3762 4.28315H54.4818C56.5834 3.85609 58.1454 1.9694 58.5833 0.140869H35.2747C35.7098 1.9694 37.2947 3.85609 39.3762 4.28315M39.3762 12.4491H54.4818C56.5834 12.0266 58.1454 10.1382 58.5833 8.30855H35.2747C35.7098 10.1388 37.2947 12.0266 39.3762 12.4491ZM39.3762 20.8403H54.4818C56.5834 20.4144 58.1454 18.5266 58.5833 16.6992H35.2747C35.7098 18.5271 37.2947 20.4144 39.3762 20.8403ZM0.0779419 0.191044C0.532044 1.99677 2.06548 3.84241 4.16933 4.30482H10.5279L10.8522 4.43539V20.7941H14.8228V4.43539L15.1835 4.30482H21.5477C23.675 3.74605 25.1755 1.99677 25.6217 0.191044V0.151132H0.0779419V0.191044" fill="black"/>
</g>
<defs>
<clipPath id="clip0_2_99">
<rect width="156" height="21" fill="white"/>
</clipPath>
</defs>
</svg>
