<svg width="34" height="43" viewBox="0 0 34 43" fill="none" xmlns="http://www.w3.org/2000/svg">
<path d="M17 27.625C18.9833 27.625 20.7719 27.1377 22.3656 26.163C23.9594 25.1898 25.2167 23.9063 26.1375 22.3125C24.8979 21.2854 23.499 20.497 21.9406 19.9474C20.3823 19.3991 18.7354 19.125 17 19.125C15.2646 19.125 13.6177 19.3991 12.0594 19.9474C10.501 20.497 9.10208 21.2854 7.8625 22.3125C8.78333 23.9063 10.0406 25.1898 11.6344 26.163C13.2281 27.1377 15.0167 27.625 17 27.625ZM17 17C18.1688 17 19.1696 16.5835 20.0026 15.7505C20.8342 14.9189 21.25 13.9188 21.25 12.75C21.25 11.5813 20.8342 10.5811 20.0026 9.7495C19.1696 8.9165 18.1688 8.5 17 8.5C15.8312 8.5 14.8311 8.9165 13.9995 9.7495C13.1665 10.5811 12.75 11.5813 12.75 12.75C12.75 13.9188 13.1665 14.9189 13.9995 15.7505C14.8311 16.5835 15.8312 17 17 17ZM17 42.5C11.2979 37.6479 7.03942 33.1408 4.2245 28.9786C1.40817 24.8179 0 20.9667 0 17.425C0 12.1125 1.70921 7.88021 5.12763 4.72813C8.54463 1.57604 12.5021 0 17 0C21.4979 0 25.4554 1.57604 28.8724 4.72813C32.2908 7.88021 34 12.1125 34 17.425C34 20.9667 32.5925 24.8179 29.7776 28.9786C26.9613 33.1408 22.7021 37.6479 17 42.5Z" fill="black"/>
</svg>
