<svg width="48" height="44" viewBox="0 0 48 44" fill="none" xmlns="http://www.w3.org/2000/svg">
<path d="M46.3526 24.7887C48.4386 23.2744 48.1363 22.7852 47.6306 20.6964V20.6964C47.5917 20.5359 46.9295 20.2195 46.8697 20.0655C46.7886 19.8567 46.6941 19.653 46.5866 19.4557C46.5198 19.3331 46.3539 19.3148 46.2652 19.4225C46.1468 19.5663 46.0439 19.7167 45.9544 19.8726C45.7565 20.217 44.4686 20.4124 44.1043 20.2541C44.0846 20.2456 44.0647 20.2373 44.0445 20.2294C44.0442 20.2293 44.0438 20.2292 44.0435 20.2292V20.2292C44.0413 20.2292 44.04 20.2317 44.0411 20.2335C44.4941 20.9789 44.3297 21.5171 44.2474 22.3537C44.1182 23.5657 45.0801 24.2198 45.1076 25.4071C45.1517 26.3912 44.7803 27.0833 44.1506 27.7067C44.0329 27.8232 43.8191 27.7131 43.8362 27.5484V27.5484C43.8509 27.408 43.711 27.2809 43.5802 27.3338C41.2042 28.2954 41.7096 29.8397 41.8151 31.9839C41.9089 33.9485 40.935 33.9775 39.6551 34.6526C39.4412 34.7654 39.0522 34.4791 39.0446 34.2374V34.2374C39.0346 33.9202 38.9489 33.61 38.7946 33.3327C38.7935 33.3307 38.7905 33.3307 38.7894 33.3329V33.3329C38.7893 33.3332 38.7892 33.3336 38.7891 33.3339C38.6677 34.8368 36.7141 35.0732 36.2992 36.4198C36.0903 37.0986 36.1975 37.9176 35.5956 38.4316C35.1702 38.7067 34.5405 39.0694 34.2728 39.5589C34.197 39.6974 34.0253 39.7813 33.8756 39.7311C33.6354 39.6506 33.3941 39.6139 33.1499 39.6084C33.0044 39.6052 32.871 39.28 32.9639 39.1679V39.1679C33.0152 39.106 32.9883 39.0127 32.9138 38.9824C30.4046 37.9593 29.55 40.3042 27.5182 40.9138C27.3079 40.9769 27.1365 40.9972 26.9226 40.9478V40.9478C25.4667 40.6111 25.768 41.1432 27.0367 41.9327C27.9903 42.5262 28.8629 43.2072 29.9725 43.2439C31.6591 43.3016 32.9586 41.7696 34.6448 41.7626C34.6464 41.7626 34.6479 41.7617 34.6486 41.7603V41.7603C34.6495 41.7584 34.6492 41.7564 34.6475 41.7552C34.6007 41.7232 34.492 41.6676 34.3448 41.6047C33.9689 41.4441 33.7571 40.5702 34.0486 40.2836C34.7946 39.5503 35.5194 38.7724 36.5685 38.7669C39.2624 38.7459 40.453 38.1924 41.3576 35.9172C41.4288 35.7382 41.3007 35.5437 41.1108 35.5761V35.5761C40.8989 35.6123 40.6755 35.4664 40.7267 35.2577C40.9393 34.3907 41.7037 33.5792 42.414 33.0026C42.6534 32.8084 42.9458 32.6968 43.2414 32.6094C45.2002 32.0298 45.2418 30.3746 46.2121 28.9094C46.3901 28.6406 46.2096 28.2898 45.9277 28.4462V28.4462C45.6417 28.6049 45.1983 28.4248 45.1919 28.0978C45.1674 26.8432 45.1014 25.6897 46.3526 24.7887" fill="#262424"/>
<path d="M47.6306 20.6992C47.7021 20.9878 47.5977 20.5508 47.6306 20.6992ZM20.8067 40.9958C18.5364 40.5552 17.728 37.9033 15.0827 38.989C15.0128 39.0177 14.9866 39.1051 15.0337 39.1642V39.1642C15.1209 39.2736 14.9843 39.6071 14.8444 39.6104C14.5981 39.6163 14.3559 39.6543 14.1161 39.7377C13.9751 39.7867 13.8122 39.7094 13.7414 39.578C13.4741 39.0824 12.8381 38.7147 12.4105 38.4343C11.8087 37.9176 11.9131 37.1013 11.7042 36.4225C11.292 35.076 9.33289 34.8395 9.217 33.3367C9.21697 33.3363 9.21687 33.3359 9.2167 33.3356V33.3356C9.21564 33.3335 9.21265 33.3334 9.21151 33.3355C9.05856 33.6132 8.97359 33.9232 8.96362 34.2402V34.2402C8.95597 34.4831 8.56674 34.7687 8.35177 34.6553C7.07231 33.9803 6.09496 33.9513 6.19102 31.9867C6.29386 29.8428 6.79649 28.296 4.42628 27.3366C4.29529 27.2836 4.15501 27.411 4.16896 27.5516V27.5516C4.18531 27.7164 3.97068 27.8268 3.85282 27.7104C3.22142 27.0867 2.8512 26.3944 2.893 25.4099C2.92048 24.2198 3.87691 23.5685 3.75598 22.3564C3.6682 21.5198 3.50376 20.9843 3.95947 20.2363C3.96061 20.2344 3.95931 20.232 3.95714 20.232V20.232C3.95679 20.232 3.95644 20.232 3.95612 20.2322C3.93556 20.2402 3.91529 20.2486 3.89532 20.2573C3.52571 20.4182 2.24656 20.2236 2.04622 19.8738C1.91404 19.643 1.75267 19.4245 1.55539 19.2214C1.55486 19.2209 1.55412 19.2206 1.55337 19.2206V19.2206C1.5524 19.2206 1.55149 19.2211 1.55098 19.2219C1.38445 19.4893 1.24406 19.7744 1.13004 20.0705C1.06866 20.2298 0.408227 20.5334 0.367262 20.6992V20.6992C-0.135686 22.7879 -0.438 23.2771 1.648 24.7915C2.89656 25.6899 2.83069 26.8442 2.80747 28.0988C2.80144 28.4249 2.35805 28.6061 2.07265 28.4482V28.4482C1.79165 28.2928 1.61138 28.6423 1.78929 28.9096C2.7636 30.3735 2.80483 32.0308 4.76018 32.6114C5.05691 32.6995 5.35056 32.8115 5.59091 33.0065C6.30142 33.5831 7.06653 34.3942 7.27935 35.2607C7.33068 35.4698 7.10748 35.6161 6.89532 35.5797V35.5797C6.70433 35.547 6.5751 35.7425 6.64675 35.9225C7.55133 38.1955 8.74215 38.7487 11.4376 38.7696C12.4417 38.7749 13.1499 39.4937 13.867 40.2002C14.1809 40.5095 13.9465 41.4711 13.5474 41.6578C13.4573 41.6999 13.3917 41.7357 13.36 41.7588C13.3591 41.7595 13.3587 41.7605 13.3587 41.7616V41.7616C13.3587 41.7637 13.3604 41.7653 13.3624 41.7653C15.0508 41.773 16.3501 43.3071 18.0309 43.2467C19.0296 43.2149 19.8386 42.6584 20.6883 42.1139C22.0974 41.2111 22.4766 40.8853 20.8067 40.9958V40.9958" fill="#262424"/>
<path d="M24.8663 38.9234C25.3403 38.9234 26.2292 39.0064 26.6774 38.6593C26.7306 38.6181 26.7883 38.5827 26.8546 38.5712V38.5712C26.9501 38.5546 27.0496 38.5738 27.1385 38.6126C27.3923 38.7234 27.625 38.6879 27.8069 38.5661C28.068 38.3915 28.2826 38.1309 28.5779 38.0239C29.2556 37.7785 29.9209 37.5001 30.5714 37.1897C30.7878 37.0864 30.7659 36.7352 30.5783 36.5857V36.5857V36.5857C30.237 36.3138 30.2412 35.8231 30.6302 35.6251C31.1642 35.3533 32.0079 35.1533 32.4809 35.0651C32.6157 35.0399 32.7186 34.9278 32.7267 34.7909V34.7909C32.7386 34.5898 32.5458 34.438 32.3511 34.4898C31.7688 34.6445 31.0543 34.7862 30.2534 34.9042C29.3151 35.0424 27.9212 33.3813 27.065 33.7894V33.7894V33.7894C26.7173 33.9609 26.5652 33.603 26.8487 33.3387C26.9812 33.2151 27.1284 33.1071 27.2876 33.0172C27.8148 32.716 28.4038 32.5394 29.0097 32.5008C29.6156 32.4622 30.2223 32.5627 30.7835 32.7945C32.3958 33.4422 38.1044 33.2674 36.6491 30.3152C36.5814 30.1779 36.4894 30.0456 36.388 29.931C34.2737 27.5403 33.1841 31.2495 30.9352 31.3206C30.8421 31.3235 30.7745 31.2373 30.7861 31.1449C30.7941 31.0816 30.7996 31.0201 30.8026 30.9606C30.8113 30.7882 31.2528 30.4104 31.1577 30.5545V30.5545C31.1005 30.6413 31.1163 30.7655 31.2178 30.788C31.5091 30.8524 31.8561 30.8096 32.0257 30.5464C32.648 29.6138 31.6875 29.0151 30.5863 28.3944C29.8178 27.9613 30.2316 26.5188 30.8 27.1934V27.1934C31.3881 27.8942 31.9872 27.1714 32.416 27.493C32.9986 27.9327 35.0956 27.5672 35.7277 27.2236C35.9036 27.1274 38.6767 26.5695 38.2452 26.1655C38.2178 26.1353 38.2287 26.1435 38.2452 26.1628C36.9508 24.959 35.3842 23.9531 33.9716 22.906C32.6771 21.9413 31.3881 20.9739 30.1019 20.001V20.001C29.5084 19.554 30.6148 18.8711 31.2429 19.2678C32.0751 19.7935 32.8078 19.9812 33.2875 19.5775C34.1826 18.8243 35.0166 18.1274 35.5967 19.1433C37.1072 21.7885 38.758 25.4894 39.0038 25.4894C39.2223 25.4894 39.3201 24.735 39.3491 23.6642C39.4208 21.016 40.0249 20.8716 40.1268 23.5188C40.1924 25.2245 40.2171 26.5672 40.3065 26.564C41.4581 26.5201 43.4781 14.5977 38.9048 8.58981C37.5582 6.81988 32.4819 0.589366 25.0696 0.00396699C24.2424 -0.0619934 22.1207 0.710291 21.4226 1.15278C19.0068 2.6946 24.138 4.01656 24.4348 5.28905V5.28905C24.4936 5.54642 24.0926 5.69316 23.935 5.48138C23.6647 5.11829 23.4063 4.82126 23.2139 4.58861C23.027 4.36255 22.6072 4.21663 22.3164 4.25511C21.398 4.37663 20.2481 3.9707 19.6042 3.33535C19.4447 3.17796 18.8381 3.19968 18.7096 3.38325C18.7051 3.38962 18.7006 3.39597 18.6961 3.4023C18.5979 3.54007 18.3808 3.34862 18.3356 3.18559V3.18559C18.2782 2.97847 17.9481 3.19547 17.9171 3.40817C17.891 3.58741 17.8482 3.76093 17.7822 3.91884C17.6832 4.15541 17.3048 3.88549 17.2179 3.64425V3.64425C17.1394 3.42649 16.8945 3.54159 16.8664 3.77134C16.8508 3.89869 16.8254 4.02498 16.7902 4.14905C16.741 4.3223 16.6733 4.48917 16.5885 4.64689C16.5262 4.76295 16.3086 4.62807 16.2697 4.50217V4.50217C16.2279 4.36646 15.8457 4.4524 15.7883 4.58228C15.3978 5.46477 14.6114 6.1078 14.4744 6.61907C14.4171 6.83292 14.2404 7.20342 14.0273 7.26363V7.26363C13.9677 7.28048 13.9494 7.31601 13.9186 7.36971C13.8253 7.53213 13.6902 7.69357 13.5429 7.85738C13.3371 8.08636 13.0753 8.2653 12.7733 8.32556C12.3832 8.40343 11.9364 8.42809 11.6577 8.282C10.7535 7.64438 13.5073 6.69345 13.2243 6.57252C13.1555 6.54229 10.4896 7.98517 11.6549 6.39938C11.9985 5.93216 12.441 5.1901 12.6938 4.6844C12.9961 4.07152 11.8803 4.75861 11.96 4.75037C11.5945 4.79434 11.4323 4.68166 11.0915 4.96199C9.49474 6.21524 9.94822 6.92431 10.1598 8.67226C10.2115 9.87724 11.1139 9.97877 12.0756 9.92386C12.5652 9.89591 13.0195 10.1461 13.3897 10.4676C13.798 10.8221 14.3073 11.0382 14.6653 10.7162C14.6953 10.6892 14.6893 10.6419 14.6567 10.6182V10.6182C14.5934 10.5722 14.6196 10.5436 14.6729 10.6009C14.796 10.7331 14.8803 10.8695 14.889 11.0016C14.8902 11.0187 14.886 11.0359 14.8788 11.0515C14.0661 12.7976 11.7452 13.1111 11.0531 14.9742C10.5199 16.4061 10.7645 18.5251 12.1029 19.4321C12.823 19.9213 13.5156 19.9432 14.3044 19.8718C14.4021 19.8634 14.4936 19.856 14.5792 19.8496C15.57 19.7757 14.9323 20.3764 14.119 20.9471V20.9471C13.2735 21.5405 12.2511 22.3389 11.9462 21.352C11.9053 21.2196 11.8698 21.0815 11.8363 20.9436C11.5368 19.7124 9.61842 19.1545 9.61842 17.9672C9.61567 16.7964 10.7123 15.84 9.80806 14.6939C9.05501 13.7375 7.76603 13.1136 7.60662 13.6962C7.45821 14.2459 8.75819 14.3256 8.75819 15.6613C8.76368 17.3955 7.16964 18.5636 8.99179 20.0862C10.388 21.2542 10.3522 24.3379 12.4107 24.3379C12.6458 24.3379 12.8702 24.3142 13.0762 24.2627C13.6943 24.1081 14.337 23.7923 14.9716 23.7351C15.7449 23.6654 16.6154 23.4665 17.1359 23.2561C17.353 23.1683 17.7085 23.2856 17.8641 23.4607V23.4607C18.0006 23.6144 17.9784 23.8821 18.0757 24.0631C18.2976 24.4757 19.2492 24.9469 19.5784 25.0469C20.7661 25.4119 21.8196 24.9453 22.4901 24.4355C23.0918 23.978 23.5512 23.8547 24.0973 24.3772C24.524 24.7855 25.0641 25.2993 25.6017 25.8029C26.4005 26.5513 26.2754 28.2724 25.3143 27.7486V27.7486C24.9948 27.5752 24.3008 27.8127 23.8376 28.2109C23.4874 28.5119 22.9984 28.8489 22.6126 28.5951V28.5951C21.6544 27.9319 20.5122 27.4703 19.4877 27.5859C18.3148 27.7182 16.7201 27.9358 15.7027 27.3375V27.3375C14.3937 26.5677 11.131 24.6561 9.79605 23.9323C9.36334 23.6977 8.88151 23.5839 8.37067 23.6508C6.25993 23.9284 7.09268 26.6492 8.1563 27.5699C8.6672 28.0128 9.27622 28.3115 9.92293 28.4691C10.5853 28.6305 11.2516 29.2898 11.7649 29.7384V29.7384C12.5173 30.4052 13.8281 30.8047 15.0454 30.7709C15.9657 30.7453 17.5856 31.428 18.4063 31.8453C19.4444 32.3732 20.948 32.4413 22.1702 32.171C22.5671 32.0833 23.4769 32.8073 23.4406 33.2121V33.2121C23.4226 33.4128 23.2588 33.5886 23.0574 33.5926C22.6552 33.6006 22.2334 33.62 21.8486 33.641C21.4501 33.6575 21.0488 33.5833 20.6421 33.6245C20.2078 33.6685 20.0347 33.4734 19.6774 33.3442C19.1799 33.1711 18.7787 33.5558 18.6605 34.0148V34.0148C18.6417 34.0931 18.577 34.1511 18.5037 34.1179C18.0503 33.9127 17.6455 33.676 17.305 33.4035C16.8544 33.0428 16.1007 33.0387 15.5422 33.1842C14.9209 33.3461 14.2075 33.1368 13.4207 32.7554C13.0166 32.5595 12.4732 33.6945 12.6333 34.1142V34.1142C12.7669 34.4645 13.474 34.8091 13.8347 34.9114C14.8429 35.1975 16.2468 35.6261 16.7437 36.1108C16.9256 36.2883 16.8864 36.5757 16.7162 36.7644C16.6695 36.8162 16.6183 36.8641 16.5632 36.9075V36.9075C16.4317 37.0109 16.4276 37.2991 16.5851 37.3555C17.2324 37.5871 17.8463 37.79 18.4421 37.9776C18.6585 38.0457 18.8149 38.2294 18.9757 38.3893C19.1679 38.5804 19.4571 38.6651 19.7546 38.5608C19.9147 38.5047 20.0864 38.4605 20.253 38.4924V38.4924C20.3502 38.511 20.4371 38.5597 20.5212 38.6119C20.916 38.8565 21.5397 38.8535 21.9558 38.8684C22.1729 38.8794 22.3955 38.8739 22.6154 38.8794C23.253 38.9371 23.8934 38.9481 24.531 38.9124C24.6519 38.9179 24.7591 38.9234 24.8663 38.9234M10.1434 8.48538C10.1351 8.43041 10.1351 8.42216 10.1434 8.48538ZM16.0303 9.07352C15.9699 9.0158 15.9341 8.91137 15.8599 8.87014C15.8082 8.84154 15.7652 8.82846 15.7236 8.8182C15.693 8.81063 15.6965 8.76911 15.728 8.77121V8.77121C15.9011 8.77395 15.9809 8.92511 16.0303 9.07352M12.7103 16.5985C12.6718 16.0104 15.8132 12.803 16.1045 12.4705C16.2448 12.3087 16.3559 12.1136 16.4392 11.8986C16.8367 10.8723 18.565 9.31975 18.3939 8.23253V8.23253V8.23253C18.3868 8.19237 18.4049 8.17175 18.4358 8.19845C18.5625 8.30824 18.7027 8.44853 18.8213 8.55377C18.9234 8.6444 19.0092 8.84882 18.942 8.96772C18.8522 9.12664 18.732 9.31191 18.6385 9.48998C18.4426 9.86294 18.5303 10.6002 18.3198 10.9651C17.9887 11.5391 17.6015 12.2138 17.5914 12.2121C18.3582 12.3221 17.7315 12.7893 17.4375 13.3637C16.6927 14.8423 17.5557 16.1753 17.7783 17.6978C17.7013 17.1784 18.6797 18.0249 18.7127 18.7477C18.7393 19.3484 19.0306 19.7244 19.3462 20.0737C19.6121 20.3679 19.0443 20.434 18.976 20.8247C18.9485 20.9819 19.0683 21.2395 19.355 21.5024C19.5088 21.6434 19.4398 22.0718 19.2628 22.1823V22.1823C19.1742 22.2377 19.0557 22.2314 18.986 22.1536C18.6372 21.7642 18.3255 21.3433 18.0548 20.8965C17.9216 20.6768 17.8504 20.4267 17.8273 20.1709C17.7658 19.4907 17.659 18.8286 17.0005 18.2695C15.706 17.1729 12.878 19.3139 12.7103 16.5985M27.5596 29.2189V29.2189C27.4288 29.2362 27.4279 29.2278 27.5596 29.2189V29.2189Z" fill="#262424"/>
<path d="M36.541 30.1122C36.581 30.178 36.5953 30.2008 36.6068 30.2266L36.541 30.1122ZM36.6068 30.2266C36.6297 30.2666 36.6354 30.2752 36.6068 30.2266Z" fill="#262424"/>
</svg>
